<svg height="512" viewBox="0 0 64 64" width="512" xmlns="http://www.w3.org/2000/svg"><g id="Contact-3" data-name="Contact"><path d="m43 3c9.94 0 18 6.27 18 14s-8.06 14-18 14c-.32 0-.63-.02-.95-.04l-8.05 6.04 1.61-7.24c-6.25-2.2-10.61-7.08-10.61-12.76 0-7.73 8.06-14 18-14z" fill="#00ccb3"/><path d="m17 58 7-7v-2.91l2.58.7a6.013 6.013 0 0 1 4.42 5.79v6.42h-28v-6.42a6.013 6.013 0 0 1 4.42-5.79l2.58-.7v2.91z" fill="#5aaae7"/><path d="m24 51-7 7-7-7v-2.91l2.64-.72 4.36 3.63 4.36-3.63 2.64.72z" fill="#e6e7e8"/><path d="m21.36 47.37-4.36 3.63-4.36-3.63 1.36-.37v-2.58a8.049 8.049 0 0 0 6 0v2.58z" fill="#ffb655"/><path d="m20 44.42a8 8 0 0 1 -11-7.42v-2h3.69a7.985 7.985 0 0 0 5.65-2.34l1.66-1.66.34.68a5.986 5.986 0 0 0 4.67 3.28l-.01.04v2a8.008 8.008 0 0 1 -5 7.42z" fill="#ffc477"/><path d="m26 32v3h-.29a5.374 5.374 0 0 1 -.7-.04 5.986 5.986 0 0 1 -4.67-3.28l-.34-.68-1.66 1.66a7.985 7.985 0 0 1 -5.65 2.34h-4.69v-3a9 9 0 0 1 18 0z" fill="#8b5e3c"/><path d="m43 2c-10.477 0-19 6.729-19 15 0 5.673 4.07 10.851 10.444 13.388l-1.421 6.4a1 1 0 0 0 1.577 1.012l7.761-5.821c.212.011.424.021.639.021 10.477 0 19-6.729 19-15s-8.523-15-19-15zm0 28c-.2 0-.4-.011-.591-.021l-.319-.015a1.039 1.039 0 0 0 -.64.2l-5.888 4.415 1.024-4.605a1 1 0 0 0 -.646-1.161c-6.04-2.121-9.94-6.757-9.94-11.813 0-7.168 7.626-13 17-13s17 5.832 17 13-7.626 13-17 13z"/><path d="m32 16h22v2h-22z"/><path d="m32 12h22v2h-22z"/><path d="m32 20h22v2h-22z"/><path d="m26.843 47.825-5.843-1.589v-1.186a9 9 0 0 0 5-8.05v-1a1 1 0 0 0 1-1v-3a10 10 0 0 0 -20 0v3a1 1 0 0 0 1 1v1a9 9 0 0 0 5 8.05v1.186l-5.846 1.59a7.03 7.03 0 0 0 -5.154 6.754v6.42a1 1 0 0 0 1 1h28a1 1 0 0 0 1-1v-6.42a7.031 7.031 0 0 0 -5.157-6.755zm-15.843 1.027 1.4-.38 3.6 3v2.528h2v-2.531l3.6-3 1.4.38v1.734l-6 6-6-6zm-2-16.852a8 8 0 0 1 16 0v1.951a4.969 4.969 0 0 1 -3.764-2.715l-.341-.683a1 1 0 0 0 -1.6-.26l-1.659 1.657a6.954 6.954 0 0 1 -4.949 2.05h-3.687zm1 5v-1h2.687a8.937 8.937 0 0 0 6.363-2.636l.7-.7a6.943 6.943 0 0 0 4.25 3.123v1.213a7 7 0 0 1 -14 0zm7 9a8.971 8.971 0 0 0 2-.232v1.232a.989.989 0 0 0 .349.743l-2.349 1.957-2.349-1.956a.989.989 0 0 0 .349-.744v-1.232a8.971 8.971 0 0 0 2 .232zm13 14h-26v-5.42a5.024 5.024 0 0 1 3.683-4.825l1.317-.355v1.6a1 1 0 0 0 .293.707l7 7a1 1 0 0 0 1.414 0l7-7a1 1 0 0 0 .293-.707v-1.6l1.314.358a5.026 5.026 0 0 1 3.686 4.822z"/><path d="m21 38h-2a2 2 0 0 1 -4 0h-2a4 4 0 0 0 8 0z"/></g></svg>