<svg height="512" viewBox="0 0 512 512" width="512" xmlns="http://www.w3.org/2000/svg"><g id="filled_outline" data-name="filled outline"><path d="m80 24h56a16 16 0 0 1 16 16v32a16 16 0 0 1 -16 16h-56z" fill="#fadbb7"/><path d="m80 71.232v16.768h56a16 16 0 0 0 16-16v-32a15.9 15.9 0 0 0 -4.329-10.88 399.936 399.936 0 0 1 -67.671 42.112z" fill="#f4c08e"/><path d="m184 24h112v64h-112z" fill="#fdb62f"/><path d="m273.025 24a120.2 120.2 0 0 1 -53.325 64h76.3v-64z" fill="#f29706"/><path d="m456 488h32v-400l-16-64-16 64z" fill="#fdb62f"/><path d="m456 120 16-16 16 16v-32l-16-64-16 64z" fill="#fadbb7"/><path d="m456 316.187v171.813h32v-217.906a400.849 400.849 0 0 1 -32 46.093z" fill="#f29706"/><path d="m40 120h256v368h-256z" fill="#6cbbc7"/><path d="m40 415.983v72.017h256v-247.085c-57.4 88.723-148.883 153.323-256 175.068z" fill="#56959f"/><path d="m328 24h96v464h-96z" fill="#ff421d"/><path d="m328 24h32v464h-32z" fill="#ff8e77"/><path d="m24 24h88v64h-88z" fill="#0071bc"/><path d="m40.73 88h71.27v-34.285a398.277 398.277 0 0 1 -71.27 34.285z" fill="#005a97"/><path d="m456 456h32v32h-32z" fill="#f4c08e"/><path d="m184 56h80v32h-80z" fill="#ccc"/><path d="m219.7 88h44.3v-32h-8.163a120.4 120.4 0 0 1 -36.137 32z" fill="#b3b3b3"/><path d="m296 112h-256a8 8 0 0 0 -8 8v16h-16v16h16v16h-16v16h16v16h-16v16h16v16h-16v16h16v16h-16v16h16v16h-16v16h16v16h-16v16h16v16h-16v16h16v16h-16v16h16v16h-16v16h16v16h-16v16h16v16a8 8 0 0 0 8 8h256a8 8 0 0 0 8-8v-368a8 8 0 0 0 -8-8zm-8 368h-240v-352h240z"/><path d="m424 16h-96a8 8 0 0 0 -8 8v464a8 8 0 0 0 8 8h96a8 8 0 0 0 8-8v-464a8 8 0 0 0 -8-8zm-88 464v-448h16v448zm32 0v-448h48v24h-32v16h32v16h-16v16h16v16h-32v16h32v16h-16v16h16v16h-32v16h32v16h-16v16h16v16h-32v16h32v16h-16v16h16v16h-32v16h32v16h-16v16h16v16h-32v16h32v16h-16v16h16v16h-32v16h32v24z"/><path d="m24 96h112a24.027 24.027 0 0 0 24-24v-32a24.027 24.027 0 0 0 -24-24h-112a8 8 0 0 0 -8 8v64a8 8 0 0 0 8 8zm120-56v32a8.008 8.008 0 0 1 -8 8h-16v-48h16a8.008 8.008 0 0 1 8 8zm-112-8h72v48h-72z"/><path d="m495.758 86.059-16-64a8 8 0 0 0 -15.516 0l-16 64a7.773 7.773 0 0 0 -.242 1.941v400a8 8 0 0 0 8 8h32a8 8 0 0 0 8-8v-400a7.773 7.773 0 0 0 -.242-1.941zm-15.758 361.941h-16v-324.688l8-8 8 8zm-16-359.016 8-32 8 32v11.7l-2.344-2.343a8 8 0 0 0 -11.312 0l-2.344 2.346zm16 391.016h-16v-16h16z"/><path d="m192 160h32v16h-32z"/><path d="m240 160h32v16h-32z"/><path d="m64 200h208v16h-208z"/><path d="m64 240h208v16h-208z"/><path d="m64 280h208v16h-208z"/><path d="m64 360h208v16h-208z"/><path d="m64 320h208v16h-208z"/><path d="m64 400h208v16h-208z"/><path d="m64 440h208v16h-208z"/><path d="m296 16h-112a8 8 0 0 0 -8 8v64a8 8 0 0 0 8 8h112a8 8 0 0 0 8-8v-64a8 8 0 0 0 -8-8zm-72 64h-32v-16h64v16zm64 0h-16v-24a8 8 0 0 0 -8-8h-72v-16h96z"/><circle cx="224" cy="71.997" r="8"/></g></svg>