<svg id="Layer_1" enable-background="new 0 0 512 512" height="512" viewBox="0 0 512 512" width="512" xmlns="http://www.w3.org/2000/svg"><g><g><g><path d="m304 164c-4.418 0-8-3.582-8-8v-48c0-22.056-17.944-40-40-40s-40 17.944-40 40v48c0 4.418-3.582 8-8 8s-8-3.582-8-8v-48c0-30.878 25.122-56 56-56s56 25.122 56 56v48c0 4.418-3.582 8-8 8z" fill="#a5c3dc"/></g><g><path d="m368 460h-224c-8.837 0-16-7.163-16-16v-304c0-8.837 7.163-16 16-16h208c8.837 0 16 7.163 16 16z" fill="#463c4b"/></g><g><path d="m304 460h-160c-8.837 0-16-7.163-16-16v-304c0-8.837 7.163-16 16-16h160c8.837 0 16 7.163 16 16v304c0 8.837-7.163 16-16 16z" fill="#555a6e"/></g><g><circle cx="176" cy="156" fill="#32283c" r="18.667"/></g><g><circle cx="272" cy="156" fill="#32283c" r="18.667"/></g><g><path d="m272 164c-4.418 0-8-3.582-8-8v-48c0-22.056-17.944-40-40-40s-40 17.944-40 40v48c0 4.418-3.582 8-8 8s-8-3.582-8-8v-48c0-30.878 25.122-56 56-56s56 25.122 56 56v48c0 4.418-3.582 8-8 8z" fill="#d7e6f0"/></g></g><g><g><path d="m224 460h-208c-8.837 0-16-7.163-16-16v-224c0-8.837 7.163-16 16-16h208c8.837 0 16 7.163 16 16v224c0 8.837-7.163 16-16 16z" fill="#289bc3"/></g><g><path d="m176 460h-160c-8.837 0-16-7.163-16-16v-224c0-8.837 7.163-16 16-16h160c8.837 0 16 7.163 16 16v224c0 8.837-7.163 16-16 16z" fill="#00d2d2"/></g><g><circle cx="48" cy="236" fill="#289bc3" r="18.667"/></g><g><circle cx="144" cy="236" fill="#289bc3" r="18.667"/></g><g><path d="m96 316c-30.878 0-56-25.122-56-56v-24c0-4.418 3.582-8 8-8s8 3.582 8 8v24c0 22.056 17.944 40 40 40s40-17.944 40-40v-24c0-4.418 3.582-8 8-8s8 3.582 8 8v24c0 30.878-25.122 56-56 56z" fill="#d7e6f0"/></g></g><g><circle cx="368" cy="316" fill="#ff6e91" r="144"/></g><g><g><path d="m432 409.333h-128c-8.837 0-16-7.163-16-16v-80h160v80c0 8.837-7.163 16-16 16z" fill="#a5c3dc"/></g><g><path d="m352 409.333h-48c-8.837 0-16-7.163-16-16v-64h80v64c0 8.837-7.163 16-16 16z" fill="#d7e6f0"/></g><g><path d="m280 273.333h176c4.418 0 8 3.582 8 8v24c0 4.418-3.582 8-8 8h-176c-4.418 0-8-3.582-8-8v-24c0-4.418 3.582-8 8-8z" fill="#a5c3dc"/></g><g><path d="m280 273.333h88c4.418 0 8 3.582 8 8v24c0 4.418-3.582 8-8 8h-88c-4.418 0-8-3.582-8-8v-24c0-4.418 3.582-8 8-8z" fill="#d7e6f0"/></g><g><path d="m328 305.333c0 4.418 3.582 8 8 8h-16c-4.418 0-8-3.582-8-8v-24c0-4.418 3.582-8 8-8h16c-4.418 0-8 3.582-8 8z" fill="#555a6e"/></g><g><path d="m408 305.333c0 4.418-3.582 8-8 8h16c4.418 0 8-3.582 8-8v-24c0-4.418-3.582-8-8-8h-16c4.418 0 8 3.582 8 8z" fill="#463c4b"/></g><g><path d="m428 273.333h-60c-3.236 0-6.153-1.949-7.391-4.938s-.554-6.43 1.734-8.718l25.858-25.858c10.63-10.631 24.765-16.485 39.799-16.485 15.439 0 28 12.561 28 28s-12.561 27.999-28 27.999zm-40.687-16h40.687c6.617 0 12-5.383 12-12s-5.383-12-12-12c-10.76 0-20.876 4.19-28.485 11.799z" fill="#463c4b"/></g><g><path d="m368 273.333h-60c-15.439 0-28-12.561-28-28s12.561-28 28-28c15.034 0 29.168 5.854 39.799 16.485l25.858 25.858c2.288 2.288 2.973 5.729 1.734 8.718s-4.155 4.939-7.391 4.939zm-60-40c-6.617 0-12 5.383-12 12s5.383 12 12 12h40.687l-12.201-12.201c-7.61-7.608-17.726-11.799-28.486-11.799z" fill="#463c4b"/></g><g><g><path d="m408 380.667c-3.313 0-6-2.687-6-6 0-6.545 3.828-12.326 9.751-14.726 3.926-1.59 6.433-5.51 6.238-9.754-.23-5.013-4.496-9.279-9.509-9.509-2.768-.125-5.391.851-7.385 2.756-1.996 1.906-3.095 4.475-3.095 7.233 0 3.313-2.687 6-6 6s-6-2.687-6-6c0-6.068 2.417-11.719 6.807-15.911 4.388-4.19 10.145-6.344 16.225-6.065 11.229.517 20.428 9.717 20.944 20.945.429 9.319-5.084 17.93-13.72 21.427-1.349.547-2.256 1.995-2.256 3.604 0 3.313-2.687 6-6 6z" fill="#463c4b"/></g><g><circle cx="408" cy="392" fill="#463c4b" r="6.667"/></g></g><g><path d="m320 329.333h16v80h-16z" fill="#555a6e"/></g><g><path d="m320 313.333h16v16h-16z" fill="#463c4b"/></g></g></g></svg>