<svg id="Capa_1" enable-background="new 0 0 512 512" height="512" viewBox="0 0 512 512" width="512" xmlns="http://www.w3.org/2000/svg"><g><g><path d="m296.783 353.111h-164.301c-11.046 0-20-8.954-20-20v-228.522c0-11.046 8.954-20 20-20h164.302c11.046 0 20 8.954 20 20v228.522c-.001 11.046-8.955 20-20.001 20z" fill="#ddeafb"/></g><g><path d="m296.738 84.589h-28.932c11.071 0 20.046 8.975 20.046 20.046v228.43c0 11.071-8.975 20.046-20.046 20.046h28.932c11.071 0 20.046-8.975 20.046-20.046v-228.43c-.001-11.071-8.975-20.046-20.046-20.046z" fill="#cbe2ff"/></g><g><g><g><path d="m217.046 161.899 3.004 12.271c4.869 19.891 18.692 33.912 37.419 42.197 1.773 1.182 1.773 3.787 0 4.969-18.727 8.285-32.55 22.306-37.419 42.197l-3.004 12.271c-.618 2.525-4.208 2.525-4.826 0l-3.004-12.271c-4.869-19.891-18.692-33.912-37.419-42.197-1.773-1.182-1.773-3.787 0-4.969 18.727-8.285 32.55-22.306 37.419-42.197l3.004-12.271c.617-2.525 4.208-2.525 4.826 0z" fill="#d82e3d"/></g></g></g><g><path d="m308.784 399.983-116.179-116.179c-7.81-7.81-7.81-20.474 0-28.284l161.589-161.589c7.81-7.81 20.474-7.81 28.284 0l116.179 116.179c7.81 7.81 7.81 20.474 0 28.284l-161.589 161.589c-7.811 7.811-20.474 7.811-28.284 0z" fill="#ecf4ff"/></g><g><path d="m498.625 210.077-16.738-16.738c4.414 7.663 3.367 17.611-3.185 24.162l-162.933 162.933c-6.084 6.084-15.097 7.417-22.49 4.045l15.472 15.472c7.828 7.828 20.521 7.828 28.349 0l161.525-161.525c7.828-7.828 7.828-20.52 0-28.349z" fill="#ddeafb"/></g><g><path d="m395.83 234.814c-7.351-8.22-18.213-11.15-28.069-8.795-.716.171-1.362-.475-1.191-1.191 2.355-9.857-.575-20.719-8.796-28.07-10.628-9.504-26.962-9.655-37.749-.333-9.021 7.796-11.916 19.74-8.686 30.199 2.454 7.946 3.991 16.146 4.491 24.446l.117 1.937c.432 7.175.109 14.375-.963 21.483l-.351 2.328c-.101.667.473 1.241 1.141 1.141l2.328-.351c7.107-1.072 14.308-1.395 21.482-.963l1.937.117c8.3.5 16.5 2.036 24.445 4.49 10.459 3.23 22.403.335 30.2-8.687 9.321-10.789 9.168-27.123-.336-37.751z" fill="#dd636e"/></g><g><path d="m303.488 251.103h-206.86c-48.721 0-88.942 39.121-89.11 87.842-.169 48.829 39.363 88.466 88.153 88.466 30.274 0 56.98-15.264 72.851-38.512 2.174-3.184 5.759-5.111 9.614-5.111h42.88c3.879 0 7.467 1.961 9.656 5.164 15.873 23.215 42.554 38.454 72.798 38.46 47.62.009 86.337-37.2 88.109-84.787 1.87-50.222-38.287-91.522-88.091-91.522z" fill="#5e54ac"/></g><g><g><path d="m339.004 258.555c16.734 16.691 26.799 40.064 25.842 65.779-1.772 47.587-40.489 84.796-88.109 84.787-12.628-.003-24.631-2.669-35.489-7.455 15.941 15.9 37.929 25.74 62.223 25.744 47.62.009 86.337-37.2 88.109-84.787 1.395-37.477-20.618-69.983-52.576-84.068z" fill="#524798"/></g></g><g><path d="m127.248 322.853h-15.05c-1.71 0-3.097-1.386-3.097-3.097v-15.049c0-7.976-6.202-14.768-14.172-15.052-8.368-.298-15.246 6.398-15.246 14.699v15.402c0 1.71-1.386 3.097-3.097 3.097h-15.048c-7.976 0-14.769 6.202-15.052 14.173-.297 8.368 6.398 15.245 14.699 15.245h15.402c1.71 0 3.097 1.386 3.097 3.097v15.049c0 7.976 6.202 14.768 14.172 15.052 8.368.298 15.246-6.398 15.246-14.699v-15.402c0-1.71 1.386-3.097 3.097-3.097h15.401c8.301 0 14.997-6.877 14.699-15.245-.282-7.97-7.075-14.173-15.051-14.173z" fill="#ecf4ff"/></g><g><g><path d="m132.557 323.819c.478 1.345.763 2.781.816 4.28.297 8.368-6.398 15.245-14.699 15.245h-15.402c-1.71 0-3.097 1.386-3.097 3.097v15.402c0 8.302-6.878 14.997-15.246 14.699-1.499-.053-2.935-.337-4.279-.816 2.032 5.473 7.093 9.525 13.206 9.743 8.368.298 15.246-6.398 15.246-14.699v-15.402c0-1.71 1.386-3.097 3.097-3.097h15.401c8.301 0 14.997-6.877 14.699-15.245-.216-6.113-4.269-11.174-9.742-13.207z" fill="#ddeafb"/></g></g><g><path d="m503.94 204.762-24.817-24.818c-2.936-2.935-7.696-2.936-10.631 0-2.936 2.935-2.936 7.695-.001 10.631l24.817 24.818c4.885 4.885 4.885 12.833 0 17.718l-94.807 94.807c-1.643-14.065-6.353-27.437-13.837-39.356 6.592-1.942 12.57-5.74 17.188-11.084 11.828-13.686 11.648-34.182-.418-47.675-6.872-7.684-16.541-11.968-26.562-12.088-.119-10.022-4.405-19.69-12.088-26.562-13.494-12.065-33.989-12.245-47.676-.416-10.894 9.416-15.194 24.373-10.953 38.105 1.514 4.9 2.629 9.864 3.353 14.832-1.336-.055-92.338-.089-92.338-.089l144.308-144.306c2.366-2.366 5.513-3.67 8.859-3.67s6.492 1.303 8.858 3.67l66.885 66.885c2.936 2.935 7.695 2.935 10.632 0 2.935-2.935 2.935-7.695 0-10.631l-66.885-66.885c-10.747-10.748-28.233-10.746-38.981 0l-24.545 24.545v-8.558c0-15.198-12.365-27.563-27.563-27.563h-164.211c-15.198 0-27.563 12.365-27.563 27.563v26.397c0 4.152 3.366 7.517 7.517 7.517s7.517-3.366 7.517-7.517v-26.397c0-6.908 5.62-12.529 12.529-12.529h164.211c6.908 0 12.529 5.62 12.529 12.529v23.592l-68.277 68.277c-6.78-6.72-11.358-14.808-13.638-24.123l-3.004-12.271c-1.099-4.488-5.094-7.623-9.715-7.623s-8.616 3.135-9.715 7.623l-3.004 12.271c-5.361 21.578-21.291 31.741-34.286 37.729-2.929 1.953-4.678 5.219-4.678 8.739s1.749 6.787 4.678 8.74c9.049 4.171 17.165 9.353 22.907 15.995h-70.536v-76.564c0-4.152-3.366-7.517-7.517-7.517s-7.517 3.366-7.517 7.517v76.564h-8.336c-53.099 0-96.446 42.767-96.627 95.333-.062 17.892 4.847 35.359 14.196 50.511 2.18 3.533 6.81 4.631 10.345 2.45 3.533-2.18 4.63-6.812 2.45-10.345-7.875-12.762-12.009-27.48-11.957-42.564.153-44.306 36.755-80.351 81.593-80.351h206.86c22.108 0 42.733 8.771 58.077 24.696 15.336 15.917 23.328 36.88 22.503 59.028-1.62 43.489-37.013 77.55-80.579 77.55-.005 0-.011 0-.016 0-26.639-.005-51.534-13.159-66.594-35.186-3.613-5.284-9.542-8.438-15.861-8.438h-42.88c-6.321 0-12.236 3.136-15.823 8.39-15.062 22.062-39.975 35.234-66.643 35.234-17.991 0-35.009-5.794-49.213-16.754-3.285-2.536-8.007-1.928-10.544 1.36-2.536 3.287-1.928 8.007 1.36 10.544 16.859 13.009 37.053 19.885 58.397 19.885 31.64 0 61.195-15.623 79.059-41.791.784-1.147 2.057-1.832 3.406-1.832h42.88c1.352 0 2.642.706 3.451 1.89 17.864 26.126 47.396 41.727 79.002 41.734h.019c49.537-.005 90.167-37.133 95.152-85.651l105.3-105.535c10.745-10.747 10.745-28.233-.002-38.98zm-320.448 14.089c15.165-8.774 25.773-21.211 31.139-36.531 3.292 9.414 8.563 17.716 15.729 24.814l-27.607 27.607c-5.256-6.182-11.691-11.506-19.261-15.89zm139.4 26.684c-.764-7.082-2.221-14.168-4.372-21.13-2.479-8.03.04-16.78 6.419-22.294 7.985-6.902 19.946-6.794 27.823.249 5.817 5.202 8.306 13.141 6.495 20.718-.692 2.897.152 5.884 2.258 7.991 2.106 2.106 5.094 2.949 7.991 2.261 7.576-1.812 15.519.678 20.72 6.495 7.043 7.876 7.151 19.837.25 27.823-4.069 4.71-9.89 7.382-16.107 7.357-.649-.714-1.305-1.423-1.978-2.121-13.62-14.137-30.75-23.52-49.499-27.349z"/><circle cx="304.212" cy="302.484" r="14.355"/><circle cx="304.212" cy="375.029" r="14.355"/><path d="m354.839 338.756c0-7.928-6.427-14.355-14.355-14.355s-14.355 6.427-14.355 14.355 6.427 14.355 14.355 14.355 14.355-6.427 14.355-14.355z"/><ellipse cx="267.939" cy="338.756" rx="14.355" ry="14.355" transform="matrix(.987 -.16 .16 .987 -50.803 47.293)"/><path d="m95.197 282.143c-12.232-.707-23.3 9.962-23.031 22.212v10.981h-10.628c-12.226 0-22.138 9.41-22.565 21.424-.704 12.237 9.962 23.295 22.212 23.029h10.981v10.629c0 12.225 9.41 22.136 21.422 22.564.274.01.545.015.817.015 11.926.249 22.472-10.286 22.213-22.227v-10.981h10.982c12.25.266 22.916-10.792 22.212-23.029-.427-12.013-10.339-21.423-22.565-21.423h-10.629v-10.629c.001-12.226-9.409-22.137-21.421-22.565zm32.051 48.227c4.022 0 7.404 3.106 7.54 6.923.229 3.967-3.219 7.545-7.187 7.461h-15.402c-5.852 0-10.614 4.761-10.614 10.614v15.402c.081 3.97-3.485 7.413-7.461 7.187-3.817-.136-6.923-3.518-6.923-7.54v-15.049c0-5.852-4.761-10.614-10.614-10.614h-15.402c-3.968.085-7.416-3.493-7.187-7.46.136-3.818 3.518-6.924 7.54-6.924h15.049c5.852 0 10.614-4.761 10.614-10.614v-15.402c-.089-3.969 3.504-7.414 7.461-7.187 3.817.136 6.923 3.518 6.923 7.54v15.049c0 5.852 4.761 10.614 10.614 10.614z"/></g></g></svg>