<svg id="Capa_1" enable-background="new 0 0 512 512" height="512" viewBox="0 0 512 512" width="512" xmlns="http://www.w3.org/2000/svg"><g><g><path clip-rule="evenodd" d="m357.992 150.037-32.855 107.291h6.038 33.932 2.778l29.198-95.332-17.405-11.449z" fill="#fdb440" fill-rule="evenodd"/></g><g><path clip-rule="evenodd" d="m371.995 63.009c-12.019 10.485-24.266 31.966-9.61 57.811l19.135 17.003 28.263-2.494c.028 0 .028 0 .057.028 33.025-13.149 48.928-94.085-9.355-117.634-6.86-2.777 4.592 16.352-28.49 45.286z" fill="#fcd79b" fill-rule="evenodd"/></g><g><path clip-rule="evenodd" d="m362.386 120.82c-3.43-1.049-7.087.907-8.136 4.307l-4.734 15.501c-1.049 3.401.879 7.085 4.309 8.133l4.167 1.275 39.091 11.959 4.167 1.275c3.402 1.049 7.087-.907 8.136-4.336l4.734-15.473c1.049-3.401-.879-7.056-4.28-8.105-.028-.028-.028-.028-.057-.028z" fill="#01d0fb" fill-rule="evenodd"/></g><g><path clip-rule="evenodd" d="m357.992 150.037-3.77 12.242 18.851 5.753c3.288 1.02 5.358 2.04 4.224 5.724l-25.598 83.571h13.408 2.778l29.198-95.332z" fill="#fe9900" fill-rule="evenodd"/></g><g><path clip-rule="evenodd" d="m392.859 130.143c2.778.878 4.564 3.486 4.564 6.291-.028.595-.113 1.219-.283 1.842l-1.247 4.052-3.515 11.421c-.454 1.474-1.361 2.664-2.551 3.457-1.587 1.077-3.629 1.445-5.585.85l12.841 3.939 4.167 1.275c3.402 1.049 7.087-.907 8.136-4.336l4.734-15.473c1.049-3.401-.879-7.056-4.28-8.105-.028-.028-.028-.028-.057-.028z" fill="#08a9f1" fill-rule="evenodd"/></g><g><path clip-rule="evenodd" d="m396.771 25.432c38.213 27.744 27.384 88.219 1.672 106.441l11.339 3.457c.028 0 .028 0 .057.028 33.025-13.149 48.928-94.085-9.355-117.634-2.976-1.191-2.522 1.7-3.713 7.708z" fill="#fbc56c" fill-rule="evenodd"/></g><g><path clip-rule="evenodd" d="m202.77 191.374h102.002v60.523h-102.002z" fill="#edf3f4" fill-rule="evenodd" transform="matrix(.043 -.999 .999 .043 21.343 465.559)"/></g><g><path clip-rule="evenodd" d="m282.587 55.357 1.077-25.307c.539-11.846-8.731-21.934-20.58-22.473-11.849-.51-21.941 8.757-22.451 20.602l-1.106 25.307c.028 0 21.091 7.113 21.147 7.113z" fill="#edf3f4" fill-rule="evenodd"/></g><g><path clip-rule="evenodd" d="m285.904 179.311 4.677-107.773.454-10.23c.198-4.818-3.515-8.927-8.306-9.238h-.17l-42.749-1.87c-.057 0-.113 0-.142 0-4.819-.113-8.901 3.656-9.1 8.473l-5.131 118.003z" fill="#b5c4cf" fill-rule="evenodd"/></g><g><path clip-rule="evenodd" d="m282.162 265.036 3.742-85.725-19.957-.85-3.742 85.697z" fill="#d7e7ec" fill-rule="evenodd"/></g><g><path clip-rule="evenodd" d="m286.215 172 4.366-100.461.454-10.23c.198-4.818-3.515-8.927-8.306-9.238h-.17l-19.815-.85c3.487.198 6.407 2.437 7.682 5.469.454 1.162.709 2.437.652 3.741l-.454 10.23-4.366 100.461-.312 7.34 19.957.85z" fill="#9aafb7" fill-rule="evenodd"/></g><g><path clip-rule="evenodd" d="m283.664 30.051c.539-11.846-8.731-21.934-20.58-22.473-3.6-.142-7.03.595-10.092 2.04 6.69 3.911 11.084 11.307 10.715 19.554l-.964 22.048 19.815.85h.17z" fill="#d7e7ec" fill-rule="evenodd"/></g><g><path clip-rule="evenodd" d="m221.81 262.146 17.859-99.47-50.828-9.125-19.475 108.595z" fill="#fdb440" fill-rule="evenodd"/></g><g><path clip-rule="evenodd" d="m244.204 137.427 6.86-38.257c1.106-6.206-3.062-12.186-9.27-13.291l-28.263-5.073c-6.208-1.105-12.189 3.061-13.295 9.267l-6.86 38.229z" fill="#fe636e" fill-rule="evenodd"/></g><g><path clip-rule="evenodd" d="m222.688 257.328 15.592-86.943-14.514-2.608-16.074 89.551z" fill="#fe9900" fill-rule="evenodd"/></g><g><path clip-rule="evenodd" d="m196.746 120.732h39.157v51.64h-39.157z" fill="#edf3f4" fill-rule="evenodd" transform="matrix(.177 -.984 .984 .177 33.865 333.587)"/></g><g><path clip-rule="evenodd" d="m154.286 46.431c-.312-2.947-2.977-5.101-5.925-4.789l-70.982 7.566c-2.948.312-5.103 2.976-4.791 5.923l22.423 210.331h82.633c-7.484-70.281-15.846-148.723-23.358-219.031z" fill="#edf3f4" fill-rule="evenodd"/></g><g><path clip-rule="evenodd" d="m154.286 46.431c-.312-2.947-2.977-5.101-5.925-4.789l-25.059 2.664c2.948-.312 5.641 1.842 5.953 4.789l22.196 208.234h25.314c-7.484-70.31-14.967-140.59-22.479-210.898z" fill="#d7e7ec" fill-rule="evenodd"/></g><g><path clip-rule="evenodd" d="m381.747 452.753 8.533-92.413-135.956-14.255-148.626 14.255 8.532 92.413 133.234 18.76z" fill="#01d0fb" fill-rule="evenodd"/></g><g><path clip-rule="evenodd" d="m390.28 360.34 5.754-62.346-138.081-13.121-158.01 13.121 5.755 62.346z" fill="#fcd79b" fill-rule="evenodd"/></g><g><path clip-rule="evenodd" d="m355.582 349.259-1.021 11.08h35.718l5.755-62.345h-296.091l2.891 31.173h182.446 57.007c14.231 0 14.457 7.481 13.295 20.092z" fill="#fbc56c" fill-rule="evenodd"/></g><g><path clip-rule="evenodd" d="m398.897 297.994c11.169 0 20.325-9.153 20.325-20.347v-14.566c0-3.174-2.58-5.753-5.755-5.753h-25.257-57.035-47.426-58.85-36.483-82.662-23.245c-3.175 0-5.755 2.579-5.755 5.753v14.566c0 11.194 9.156 20.347 20.354 20.347h2.835 223.946 57.007 15.138z" fill="#01d0fb" fill-rule="evenodd"/></g><g><path clip-rule="evenodd" d="m419.223 277.647v-14.566c0-3.174-2.58-5.753-5.755-5.753h-25.258-16.3-6.803c3.005 0 5.471 2.295 5.755 5.243v.51 14.566c0 11.194-9.156 20.347-20.325 20.347h30.36 15.138 2.863c11.168 0 20.325-9.153 20.325-20.347z" fill="#08a9f1" fill-rule="evenodd"/></g><g><path clip-rule="evenodd" d="m368.14 504.443c5.358 0 9.27-4.421 9.752-9.749l3.855-41.941h-267.517l3.855 41.941c.51 5.328 4.394 9.749 9.752 9.749z" fill="#fcd79b" fill-rule="evenodd"/></g><g><path clip-rule="evenodd" d="m346.029 452.753-2.863 31.173-1.899 20.517h26.874c5.358 0 9.27-4.421 9.752-9.749l3.855-41.941z" fill="#fbc56c" fill-rule="evenodd"/></g><g><path clip-rule="evenodd" d="m351.67 391.541-5.641 61.212h35.718l8.533-92.413h-35.718z" fill="#08a9f1" fill-rule="evenodd"/></g><g><path clip-rule="evenodd" d="m180.592 350.364h134.793c3.969 0 7.229 3.231 7.229 7.198v41.601c0 3.967-3.26 7.198-7.229 7.198h-134.793c-3.969 0-7.2-3.231-7.2-7.198v-41.601c0-3.967 3.231-7.198 7.2-7.198z" fill="#edf3f4" fill-rule="evenodd"/></g><g><path clip-rule="evenodd" d="m315.385 350.364h-24.833c3.969 0 7.229 3.231 7.229 7.198v.368 41.233c0 3.967-3.26 7.198-7.229 7.198h24.833c3.969 0 7.229-3.231 7.229-7.198v-41.233-.368c0-3.967-3.26-7.198-7.229-7.198z" fill="#d7e7ec" fill-rule="evenodd"/></g><g><path clip-rule="evenodd" d="m245.196 131.844 5.868-32.675c1.106-6.206-3.062-12.186-9.27-13.291l-14.514-2.607c6.208 1.105 10.375 7.085 9.241 13.291l-5.84 32.675z" fill="#fb2a39" fill-rule="evenodd"/></g><g><path clip-rule="evenodd" d="m239.669 162.676 4.535-25.249.992-5.583-14.514-2.607-1.02 5.582-4.507 25.25-1.389 7.708 14.514 2.608z" fill="#d7e7ec" fill-rule="evenodd"/></g><path d="m447 78.048c.096-31.534-15.826-56.076-43.679-67.33-3.729-1.509-6.557-.665-8.273.308-3.965 2.248-4.608 6.37-5.124 9.682-.971 6.232-2.993 19.199-22.895 36.605-13.673 11.928-24.79 33.788-15.25 58.695-2.178 1.71-3.88 4.069-4.756 6.911l-4.729 15.482c-1.105 3.585-.741 7.394 1.026 10.727 1.25 2.358 3.101 4.255 5.344 5.559l-29.117 95.084h-29.154l7.417-170.37 8.969.396c3.665.16 6.517 3.274 6.357 6.944l-4.026 92.753c-.181 4.169 3.052 7.697 7.222 7.878.112.005.223.007.333.007 4.022 0 7.367-3.172 7.544-7.23l4.026-92.752c.521-11.995-8.81-22.178-20.795-22.699l-8.973-.397.115-2.641c.204-4.384-1.327-8.585-4.312-11.829-1.113-1.21-2.377-2.231-3.755-3.046l.696-16.39c.352-7.748-2.355-15.181-7.623-20.927-5.257-5.735-12.418-9.087-20.163-9.439-.006 0-.012 0-.018 0-16.042-.699-29.635 11.793-30.326 27.822l-.718 16.402c-5.259 2.529-9.016 7.782-9.341 13.998-.001.032-.003.064-.005.097l-.705 16.357-7.458-1.339c-10.319-1.834-20.215 5.048-22.057 15.344l-16.567 92.323-14.429-135.397c-.751-7.097-7.138-12.261-14.241-11.509l-70.975 7.566c-3.433.363-6.523 2.044-8.7 4.735s-3.175 6.064-2.812 9.503l20.654 193.84h-3.218c-7.34 0-13.311 5.971-13.311 13.31v14.566c0 13.999 10.366 25.621 23.826 27.603l17.54 190.164c.905 9.455 8.331 16.586 17.274 16.586h240.302c8.993 0 16.42-7.147 17.276-16.612l17.537-190.135c13.458-1.972 23.826-13.598 23.826-27.606v-14.566c0-7.339-5.971-13.31-13.311-13.31h-35.365l24.101-78.689c.314.021.629.035.943.035 2.265 0 4.516-.557 6.584-1.653 3.338-1.77 5.782-4.724 6.882-8.318l4.734-15.473c.834-2.728.816-5.58-.016-8.251 15.216-11.315 25.593-34.504 25.669-59.374zm-198.818-49.542c.332-7.705 6.858-13.692 14.565-13.378 3.722.171 7.167 1.788 9.703 4.554 2.532 2.763 3.834 6.323 3.664 10.049l-.614 14.461-27.951-1.218zm-10.064 30.511c.036-.696.642-1.261 1.306-1.264l42.784 1.866c.484.022.797.288.94.443.165.179.357.48.337.918l-4.808 110.453-32.645-1.421 12.472-69.518c.889-4.989-.224-10.034-3.133-14.206-2.91-4.174-7.261-6.962-12.241-7.848l-5.804-1.042zm39.902 127.516-2.753 63.238h-43.545l11.617-64.747zm-70.344-95.158c.37-2.067 2.442-3.503 4.521-3.132l28.274 5.075c1.368.244 2.156 1.116 2.503 1.615.348.499.895 1.54.653 2.901l-4.528 25.237-35.952-6.454zm-7.199 40.118 35.953 6.455-4.246 23.665-35.954-6.455zm-6.916 38.541 35.954 6.455-13.148 73.282h-32.808l-1.605-15.059zm-108.948-73.362 13.467-1.438c4.15-.443 7.155-4.166 6.712-8.316s-4.168-7.159-8.316-6.712l-13.465 1.437-2.68-25.15 66.669-7.107 21.359 200.385h-67.434l-2.018-18.942 13.487-1.437c4.15-.442 7.156-4.166 6.713-8.315-.442-4.15-4.164-7.148-8.315-6.714l-13.487 1.437-3.163-29.69 13.462-1.437c4.15-.443 7.155-4.166 6.712-8.316s-4.168-7.156-8.316-6.712l-13.46 1.436-3.163-29.689 13.465-1.437c4.15-.443 7.155-4.166 6.712-8.316-.442-4.15-4.164-7.154-8.316-6.712l-13.462 1.437zm283.527 400.213h-240.303c-1.431 0-2.117-1.741-2.227-2.886l-3.107-33.69h107.669c4.174 0 7.557-3.383 7.557-7.557s-3.383-7.557-7.557-7.557h-109.063l-7.13-77.298h51.856v31.267c0 8.136 6.62 14.755 14.757 14.755h134.793c8.153 0 14.786-6.619 14.786-14.755v-31.267h51.827l-7.13 77.298h-109.687c-4.174 0-7.557 3.383-7.557 7.557s3.383 7.557 7.557 7.557h108.293l-3.109 33.704c-.125 1.393-.948 2.872-2.225 2.872zm-53.083-98.08h-134.108v-40.883h134.109v40.883zm96.609-133.92v12.762c0 7.053-5.728 12.79-12.768 12.79h-2.936c-.004 0-.008 0-.012 0h-132.95c-4.174 0-7.557 3.384-7.557 7.557s3.383 7.557 7.557 7.557h124.75l-4.356 47.231h-54.033c-1.996-5.794-7.499-9.975-13.974-9.975h-134.795c-6.462 0-11.954 4.181-13.947 9.975h-54.06l-4.356-47.231h120.158c4.174 0 7.557-3.384 7.557-7.557s-3.383-7.557-7.557-7.557h-128.36c-.005 0-.01 0-.015 0h-2.903c-7.056 0-12.797-5.737-12.797-12.79v-12.762h9.82zm-49.37-15.114h-26.943l27.651-90.297 24.638 7.538zm40.165-94.032-3.16-.967c-.003-.001-.005-.002-.008-.003l-19.148-5.858-23.1-7.067 4.121-13.493 45.42 13.904zm6.782-28.478-41.647-12.749c-12.048-24.331 3.997-41.124 9.374-45.814 19.881-17.388 25.164-32.197 27.047-40.971 25.103 13.664 27.903 39.297 27.869 50.275-.066 21.474-9.844 42.398-22.643 49.259z"/></g></svg>